PathFileType	4	(X/Y/Z)	Run_400 01
DataRate	CameraRate	NumFrames	NumMarkers	Units	OrigDataRate	OrigDataStartFrame	OrigNumFrames
120	120	6	42	mm	120	10	128
Frame#	Time	LASI			RASI			LPSI			RTH1			RTH2			RTH3			LTH1			LTH2			LTH3			RTB1			RTB2			RTB3			LTB1			LTB2			LTB3			RCAL			RTOE			RMT5			LCAL			LTOE			LMT5			LACR			RACR			CLAV			C7			RUA1			RUA2			RUA3			RLEL			RMEL			LUA1			LUA2			LUA3			LLEL			LMEL			RFAsuperior			RFAradius			LFAsuperior			LFAradius			LFAulna			RFAulna			RPSI			
		X1	Y1	Z1	X2	Y2	Z2	X3	Y3	Z3	X4	Y4	Z4	X5	Y5	Z5	X6	Y6	Z6	X7	Y7	Z7	X8	Y8	Z8	X9	Y9	Z9	X10	Y10	Z10	X11	Y11	Z11	X12	Y12	Z12	X13	Y13	Z13	X14	Y14	Z14	X15	Y15	Z15	X16	Y16	Z16	X17	Y17	Z17	X18	Y18	Z18	X19	Y19	Z19	X20	Y20	Z20	X21	Y21	Z21	X22	Y22	Z22	X23	Y23	Z23	X24	Y24	Z24	X25	Y25	Z25	X26	Y26	Z26	X27	Y27	Z27	X28	Y28	Z28	X29	Y29	Z29	X30	Y30	Z30	X31	Y31	Z31	X32	Y32	Z32	X33	Y33	Z33	X34	Y34	Z34	X35	Y35	Z35	X36	Y36	Z36	X37	Y37	Z37	X38	Y38	Z38	X39	Y39	Z39	X40	Y40	Z40	X41	Y41	Z41	X42	Y42	Z42	

1	0.641667	1156.041238	1024.446049	-446.485534	1133.888879	1041.395604	-217.173085	988.4570179999999	1074.814845	-403.71813	1104.678388	885.697703	-155.487171	1224.3361	766.399801	-181.493085	1200.109562	663.541597	-201.853187	1062.129839	854.480668	-503.453784	1096.407702	740.803961	-462.350863	988.499602	643.694154	-454.459033	1330.488667	466.776251	-260.897643	1289.303031	395.330929	-207.672653	1359.506478	289.198707	-272.029643	850.127151	470.248129	-394.102561	751.589004	504.547893	-452.915351	650.827511	473.442011	-395.768349	1274.892213	136.704037	-318.595889	1486.404991	140.0479	-324.081359	1467.875245	77.83798400000001	-235.792587	556.289487	586.819415	-410.487653	479.186857	411.086684	-329.844917	430.62615	414.631776	-426.848958	1163.734576	1514.814209	-491.343028	1091.068432	1492.013924	-138.686774	1184.894694	1453.674982	-276.927514	1088.909782	1544.58967	-328.192152	1030.192877	1441.68748	-100.8639	999.556879	1357.681464	-121.624475	925.995395	1397.101634	-145.466322	843.271023	1314.931478	-140.057279	859.590553	1308.004859	-203.183205	1136.846538	1450.415646	-552.387312	1063.289932	1413.372907	-550.050126	1116.50352	1352.070887	-585.5887760000001	1034.840726	1264.654924	-631.801793	981.587643	1270.307286	-579.5068209999999	877.905393	1239.813708	-95.956346	918.679665	1056.58747	-64.310622	1111.493998	1253.392289	-596.146869	1229.41403	1254.337979	-443.483132	1225.863875	1188.679251	-455.401657	862.584446	1044.770784	-101.534065	974.175956	1073.848262	-304.755522	
2	0.65	1156.38172	1019.614874	-446.594515	1133.19496	1037.023185	-216.362781	988.0914289999999	1066.846643	-404.5068	1104.117402	881.249163	-156.321998	1224.139843	763.001851	-180.665239	1198.356524	658.910124	-203.011559	1065.196935	848.377376	-503.837512	1101.664163	735.802315	-464.944245	996.598757	636.1503259999999	-454.698948	1324.759109	458.134268	-263.91914	1282.884797	387.779259	-210.020235	1348.805357	279.526611	-273.944771	860.427423	469.353535	-395.677758	763.7610089999999	510.668504	-453.438912	661.697665	485.940834	-396.514167	1258.39322	130.563958	-318.622106	1469.677073	123.780638	-326.60811	1449.359727	64.80213500000001	-237.826011	573.012441	605.938084	-407.741638	487.794342	430.836365	-333.877693	440.801324	439.563081	-431.293713	1162.195552	1508.859239	-490.6365	1092.360636	1484.368397	-137.115333	1185.146101	1447.094237	-276.697133	1088.975627	1538.850646	-326.706203	1031.946251	1432.524	-98.636566	1001.684925	1348.558907	-119.869444	927.4663399999999	1387.241066	-141.735911	845.903326	1304.019758	-136.181956	861.145751	1298.049686	-199.944957	1132.815739	1445.398908	-551.447377	1058.567918	1409.141018	-547.23148	1110.144164	1347.414564	-584.697325	1026.818461	1262.462492	-630.139358	974.976394	1268.556946	-576.263535	882.348786	1228.695852	-93.66737000000001	926.930747	1045.931316	-65.424679	1103.165407	1246.624507	-596.0703999999999	1225.009718	1233.928166	-446.454964	1217.359564	1169.271943	-462.348931	870.268389	1034.091429	-101.82834	973.52502	1067.254483	-304.845263	
3	0.6583329999999999	1156.495429	1014.220832	-446.766809	1132.479781	1031.865656	-215.249923	987.411367	1058.390988	-405.033295	1103.969852	876.342858	-157.685907	1224.060402	758.457372	-180.833105	1196.346148	653.4142859999999	-204.038112	1067.702822	841.722169	-504.398212	1106.714581	730.293605	-468.083949	1005.034858	627.9731860000001	-455.12446	1318.659438	448.33594	-266.171893	1275.584515	379.338598	-211.654914	1335.922711	268.542431	-275.527582	871.754186	468.171282	-397.909656	777.42209	516.371796	-454.419712	674.489467	497.622014	-397.411939	1238.09211	123.938574	-317.703593	1448.974401	106.813646	-329.27702	1427.5524	53.24859	-238.517257	590.735772	623.825224	-404.806741	499.497735	448.909704	-337.821371	454.386036	462.113076	-435.612907	1160.521164	1502.23686	-490.016132	1093.555376	1476.005532	-135.664667	1185.351675	1440.000915	-276.547151	1088.951123	1532.352808	-325.447063	1033.775972	1422.360618	-96.60468299999999	1004.143595	1338.337748	-118.108652	928.783598	1375.940465	-137.781987	848.860814	1291.750227	-131.91453	862.85391	1286.714381	-196.316558	1128.778803	1439.619625	-550.6865299999999	1053.834787	1404.246044	-544.459178	1103.511559	1341.944236	-583.64593	1018.525792	1259.715886	-628.2452479999999	968.232604	1266.244649	-572.808752	887.2198069999999	1216.444132	-90.877639	936.257729	1034.31243	-66.607393	1094.424047	1239.183436	-596.155878	1219.184388	1212.296195	-449.742194	1207.56718	1149.222338	-470.154175	878.777434	1022.435474	-101.582989	973.240956	1060.663591	-304.445097	
4	0.666667	1156.345277	1008.237836	-446.997046	1131.899348	1025.891259	-214.056165	986.504764	1049.757385	-405.24251	1104.438344	870.566038	-159.292432	1223.855882	752.1045779999999	-182.283313	1194.236079	646.711597	-204.918145	1069.603091	834.455601	-505.06627	1111.919952	724.2016159999999	-471.594248	1014.014722	619.305017	-455.822632	1311.905476	437.327262	-267.916188	1267.048742	370.03731	-213.16778	1319.576404	256.431917	-277.779069	884.038474	466.48879	-401.062581	792.4811979999999	521.7017980000001	-455.941992	689.059833	508.189835	-398.443375	1212.717079	116.352818	-317.024822	1423.424752	92.20279499999999	-332.311487	1401.900162	45.188093	-238.088438	609.626905	640.2308	-401.830817	513.907889	465.20295	-341.574036	470.955359	482.212111	-439.804985	1158.606642	1495.092039	-489.553252	1094.673604	1467.091142	-134.276065	1185.541227	1432.46787	-276.461789	1088.735229	1525.180338	-324.329005	1035.711369	1411.394077	-94.71630999999999	1007.035798	1327.082853	-116.371103	930.169864	1363.326515	-133.645078	852.286909	1278.272071	-127.277214	864.888176	1274.121068	-192.336793	1124.777526	1433.179285	-549.985024	1049.145112	1398.819631	-541.714604	1096.729207	1335.810203	-582.317334	1010.043127	1256.412633	-626.151214	961.495735	1263.225736	-569.217045	892.762073	1203.172128	-87.77888900000001	946.719519	1021.935257	-67.972562	1085.315658	1231.154059	-596.301564	1211.841007	1189.593532	-453.311144	1196.403273	1128.736003	-478.619971	888.352614	1009.718514	-100.922413	973.279881	1054.036273	-303.646956	
5	0.675	1155.86584	1001.596034	-447.158342	1131.477651	1019.099477	-212.997371	985.475465	1041.106666	-405.113896	1105.289993	863.365211	-160.711534	1223.191298	743.8539939999999	-184.494342	1192.362547	638.629242	-205.767308	1071.087094	826.394779	-505.626876	1117.511526	717.530426	-475.271036	1023.564403	610.367964	-457.041073	1303.925254	425.346647	-270.158664	1256.74478	360.421297	-215.389477	1298.92085	243.946502	-281.704037	897.310283	464.185866	-405.203508	808.868958	526.490715	-457.955447	705.281653	517.394963	-399.548341	1181.886227	107.837471	-317.705596	1392.996092	82.454819	-335.804098	1372.312307	41.486379	-237.333438	629.9458080000001	654.772546	-399.064491	530.590857	479.69281	-345.023509	490.098413	499.735242	-443.794744	1156.323588	1487.570818	-489.299672	1095.80424	1457.86194	-132.846711	1185.764981	1424.561011	-276.462956	1088.202291	1517.459316	-323.219042	1037.784925	1399.828307	-92.889241	1010.448476	1314.974345	-114.661108	931.903867	1349.585835	-129.263924	856.332215	1263.747882	-122.314134	867.32348	1260.460973	-187.983351	1120.699192	1426.187499	-549.292616	1044.4859	1392.959686	-538.997757	1089.92781	1329.110216	-580.64756	1001.438244	1252.572564	-623.893254	954.891528	1259.356871	-565.4823	899.2395780000001	1188.992607	-84.590812	958.383041	1009.078329	-69.551495	1075.879075	1222.569325	-596.411529	1203.048014	1166.282673	-457.634761	1183.818624	1108.021098	-487.420431	899.240138	996.000319	-100.082883	973.27607	1047.047374	-302.554098	
6	0.683333	1154.944354	994.26063	-447.073274	1131.049039	1011.508362	-212.168882	984.283903	1032.493452	-404.584351	1105.800104	854.518472	-161.583123	1221.686816	734.2561040000001	-186.48114	1190.805095	629.345019	-206.894512	1072.531996	817.502215	-505.870035	1123.517009	710.430749	-478.913243	1033.6183	601.377323	-459.064048	1294.135754	413.111287	-273.97164	1244.188887	351.430695	-218.849319	1274.513675	232.338718	-287.463042	911.732788	461.325575	-410.081878	826.517195	530.412629	-460.311414	723.051745	525.0450990000001	-400.683329	1147.013107	99.444019	-320.204324	1359.140782	77.86945900000001	-339.543492	1339.612759	41.423535	-237.085044	651.8311220000001	667.044841	-396.827015	549.109522	492.342143	-348.05647	511.390683	514.476746	-447.480297	1153.549149	1479.817604	-489.238742	1097.060084	1448.60365	-131.28385	1186.091468	1416.387465	-276.611164	1087.289442	1509.378842	-322.010853	1040.090706	1387.811489	-91.055604	1014.460338	1302.324187	-112.946142	934.233652	1334.929113	-124.515092	861.144691	1248.341969	-117.078701	870.19823	1245.961206	-183.217633	1116.322214	1418.75136	-548.63901	1039.764186	1386.705982	-536.347109	1083.187467	1321.879418	-578.690322	992.763189	1248.257153	-621.496094	948.445272	1254.680368	-561.6061560000001	906.930866	1174.026102	-81.495023	971.340407	996.069419	-71.342489	1066.113858	1213.40051	-596.510359	1192.984172	1142.996993	-463.351659	1169.776248	1087.31954	-496.181243	911.5485179999999	981.586648	-99.313401	972.716875	1039.359354	-301.149736	
